# File created by Blade
# Date/Time:  Wed Jan 21 18:02:19 2015
# Frame Rate: 120.000 fps
#------------------------------------------------------
:FULLY-SPECIFIED
:DEGREES
1327
root 21.260143 35.392189 -24.782647 -170.191952 1.087049 -178.186258
Spine -22.092931 3.683563 -0.277406
Head 9.841242 -2.802036 -0.137587
LeftShoulder -11.800535 -31.390096 20.458095
LeftArm 4.633737 4.375674 -5.075036
LeftForeArm 9.623971 -0.000000 -2.498556
LeftHand -10.201443 -0.000000 -4.716001
LeftHandThumb1 -26.253704 0.000000 33.147579
RightShoulder -13.289977 -4.696915 -10.464112
RightArm 6.555454 37.443961 9.261357
RightForeArm -38.902591 -0.000000 4.117871
RightHand -5.552868 0.000000 11.111607
RightHandThumb1 -24.326973 -0.000000 -32.862282
LeftUpLeg 0.570789 9.234102 2.607709
LeftLeg -4.942794 -0.000000 0.000000
LeftFoot -21.163103 27.171973 -12.341574
LeftToeBase 24.403526 -0.000000 -0.000000
RightUpLeg -0.882417 -4.093090 0.345907
RightLeg -2.957409 -0.000000 0.000000
RightFoot -21.776458 -20.241675 17.353536
RightToeBase 24.187912 -0.000000 -0.000000
1328
root 21.256819 35.391634 -24.786639 -170.175274 1.066537 -178.195854
Spine -22.143048 3.677773 -0.301646
Head 9.932728 -2.794589 -0.165407
LeftShoulder -11.790910 -31.394172 20.483330
LeftArm 4.609916 4.352806 -5.116682
LeftForeArm 9.611384 -0.000000 -2.496404
LeftHand -10.206350 -0.000000 -4.717039
LeftHandThumb1 -26.253704 0.000000 33.147579
RightShoulder -13.261295 -4.644294 -10.471470
RightArm 6.488249 37.381333 9.206534
RightForeArm -38.880821 0.000000 4.129123
RightHand -5.540597 -0.000000 11.132854
RightHandThumb1 -24.326973 -0.000000 -32.862282
LeftUpLeg 0.560365 9.231649 2.591128
LeftLeg -4.952622 -0.000000 0.000000
LeftFoot -21.155611 27.170986 -12.330000
LeftToeBase 24.387697 -0.000000 -0.000000
RightUpLeg -0.883695 -4.144646 0.338628
RightLeg -2.972238 -0.000000 0.000000
RightFoot -21.771714 -20.228884 17.343927
RightToeBase 24.199015 -0.000000 -0.000000
1329
root 21.254186 35.391952 -24.789700 -170.171730 1.060546 -178.199668
Spine -22.165642 3.677956 -0.316332
Head 9.928745 -2.763465 -0.114251
LeftShoulder -11.800846 -31.426025 20.493682
LeftArm 4.600504 4.345310 -5.132382
LeftForeArm 9.580465 -0.000000 -2.499567
LeftHand -10.220009 -0.000000 -4.689009
LeftHandThumb1 -26.253704 0.000000 33.147579
RightShoulder -13.246264 -4.662860 -10.459307
RightArm 6.476986 37.431581 9.189773
RightForeArm -38.824581 -0.000000 4.155921
RightHand -5.588885 -0.000000 11.200127
RightHandThumb1 -24.326973 -0.000000 -32.862282
LeftUpLeg 0.559312 9.257315 2.580110
LeftLeg -4.952915 -0.000000 0.000000
LeftFoot -21.196490 27.125282 -12.367565
LeftToeBase 24.494840 -0.000000 -0.000000
RightUpLeg -0.882725 -4.160092 0.334714
RightLeg -2.976250 -0.000000 0.000000
RightFoot -21.762895 -20.224066 17.338659
RightToeBase 24.142710 -0.000000 -0.000000
1330
root 21.250894 35.391192 -24.793431 -170.168881 1.055389 -178.203772
Spine -22.193091 3.687363 -0.328457
Head 9.989190 -2.746309 -0.149339
LeftShoulder -11.801881 -31.435074 20.499917
LeftArm 4.595366 4.329365 -5.157544
LeftForeArm 9.547217 0.000000 -2.509397
LeftHand -10.213276 0.000000 -4.673855
LeftHandThumb1 -26.253704 0.000000 33.147579
RightShoulder -13.248908 -4.660569 -10.475335
RightArm 6.483427 37.452516 9.203091
RightForeArm -38.815643 -0.000000 4.162396
RightHand -5.596109 -0.000000 11.197916
RightHandThumb1 -24.326973 -0.000000 -32.862282
LeftUpLeg 0.561301 9.274157 2.570219
LeftLeg -4.952675 -0.000000 0.000000
LeftFoot -21.153406 27.133259 -12.327448
LeftToeBase 24.379705 -0.000000 -0.000000
RightUpLeg -0.876468 -4.177373 0.327601
RightLeg -2.977698 -0.000000 0.000000
RightFoot -21.769423 -20.224143 17.344476
RightToeBase 24.172727 -0.000000 -0.000000
1331
root 21.248454 35.391183 -24.796750 -170.159575 1.049717 -178.207228
Spine -22.227541 3.695112 -0.347977
Head 10.027123 -2.740949 -0.135980
LeftShoulder -11.806625 -31.451642 20.523309
LeftArm 4.578455 4.305893 -5.194332
LeftForeArm 9.577903 -0.000000 -2.496951
LeftHand -10.222962 0.000000 -4.654020
LeftHandThumb1 -26.253704 0.000000 33.147579
RightShoulder -13.251283 -4.657725 -10.475139
RightArm 6.476996 37.464006 9.198475
RightForeArm -38.832311 -0.000000 4.167250
RightHand -5.571973 -0.000000 11.192251
RightHandThumb1 -24.326973 -0.000000 -32.862282
LeftUpLeg 0.562134 9.276619 2.560843
LeftLeg -4.968159 -0.000000 0.000000
LeftFoot -21.151105 27.131688 -12.347057
LeftToeBase 24.369158 -0.000000 -0.000000
RightUpLeg -0.874051 -4.178317 0.322645
RightLeg -2.992861 -0.000000 0.000000
RightFoot -21.780886 -20.245684 17.375897
RightToeBase 24.200227 -0.000000 -0.000000
1332
root 21.245184 35.391547 -24.799613 -170.139917 1.044604 -178.210575
Spine -22.278296 3.706190 -0.362488
Head 10.063156 -2.744980 -0.129777
LeftShoulder -11.790552 -31.474956 20.529986
LeftArm 4.540278 4.311970 -5.217053
LeftForeArm 9.578727 -0.000000 -2.475758
LeftHand -10.246860 -0.000000 -4.668146
LeftHandThumb1 -26.253704 0.000000 33.147579
RightShoulder -13.254986 -4.665258 -10.491372
RightArm 6.456405 37.365790 9.183067
RightForeArm -38.654563 -0.000000 4.196168
RightHand -5.580417 -0.000000 11.250512
RightHandThumb1 -24.326973 -0.000000 -32.862282
LeftUpLeg 0.547160 9.271048 2.549081
LeftLeg -4.970512 -0.000000 0.000000
LeftFoot -21.149940 27.141385 -12.348547
LeftToeBase 24.349558 -0.000000 -0.000000
RightUpLeg -0.892119 -4.192655 0.316711
RightLeg -2.984573 -0.000000 0.000000
RightFoot -21.766470 -20.237468 17.359774
RightToeBase 24.130260 -0.000000 -0.000000
1333
root 21.241688 35.391385 -24.802704 -170.135323 1.034731 -178.216009
Spine -22.305631 3.702720 -0.370429
Head 10.100739 -2.712649 -0.132434
LeftShoulder -11.801135 -31.463927 20.530355
LeftArm 4.539529 4.296115 -5.234339
LeftForeArm 9.572737 0.000000 -2.478260
LeftHand -10.296260 -0.000000 -4.615574
LeftHandThumb1 -26.253704 0.000000 33.147579
RightShoulder -13.250921 -4.696640 -10.495581
RightArm 6.463078 37.405842 9.181915
RightForeArm -38.616176 -0.000000 4.194736
RightHand -5.565557 -0.000000 11.251532
RightHandThumb1 -24.326973 -0.000000 -32.862282
LeftUpLeg 0.546937 9.266583 2.538137
LeftLeg -4.974168 -0.000000 0.000000
LeftFoot -21.150258 27.139881 -12.346940
LeftToeBase 24.353020 -0.000000 -0.000000
RightUpLeg -0.891939 -4.214854 0.309758
RightLeg -2.985555 -0.000000 0.000000
RightFoot -21.776259 -20.232683 17.379209
RightToeBase 24.177195 -0.000000 -0.000000
